# xmcd CD database file
#
# Track frame offsets:
#	183
#	19045
#	31760
#	43445
#	54240
#	74040
#	85355
#	95275
#	109400
#	121190
#	130013
#	131570
#
# Disc length: 1981 seconds
#
# Revision: 1
# Processed by: cddbd v1.5.2PL0 Copyright (c) Steve Scherf et al.
# Submitted via: CDex 1.51
#
DISCID=a307bb0c
DTITLE=Alzo and Udine - C'mon And Join Us!
DYEAR=1968
DGENRE=Rock
TTITLE0=Something Going
TTITLE1=Hey Hey Hey, She's O.K.
TTITLE2=Rain (de Rain)
TTITLE3=I Can't Believe It
TTITLE4=Want Your Love
TTITLE5=Drag Of A Bag
TTITLE6=Lead You Down That Road
TTITLE7=This Room
TTITLE8=You've Got Me Going
TTITLE9=Define
TTITLE10=Speech
TTITLE11=C'mon And Join Us
EXTD=YEAR: 1968
EXTT0=
EXTT1=
EXTT2=
EXTT3=
EXTT4=
EXTT5=
EXTT6=
EXTT7=
EXTT8=
EXTT9=
EXTT10=
EXTT11=
PLAYORDER=
